<?xml version="1.0" encoding="UTF-8" standalone="no"?>
<!-- Provided by user: icon.svg -->
<svg
   width="328.72198mm"
   height="328.47141mm"
   viewBox="0 0 328.722 328.47141"
   version="1.1"
   id="svg1"
   xml:space="preserve"
   xmlns:xlink="http://www.w3.org/1999/xlink"
   xmlns="http://www.w3.org/2000/svg"
   xmlns:svg="http://www.w3.org/2000/svg"><defs
     id="defs1"><linearGradient
       id="linearGradient217"><stop
         style="stop-color:#d64f86;stop-opacity:1;"
         offset="0"
         id="stop217" /><stop
         style="stop-color:#7a2cff;stop-opacity:1;"
         offset="1"
         id="stop218" /></linearGradient><linearGradient
       xlink:href="#linearGradient217"
       id="linearGradient218"
       x1="118.40877"
       y1="68.06813"
       x2="1358.822"
       y2="1302.3204"
       gradientUnits="userSpaceOnUse" /></defs><g
     id="layer1"
     transform="translate(149.62689,80.691474)"><g
       style="clip-rule:evenodd;fill-rule:evenodd;stroke-linejoin:round;stroke-miterlimit:2"
       id="g217"
       transform="matrix(0.26458333,0,0,0.26458333,-179.32578,-97.614435)"><path
         id="path1"
         style="fill:url(#linearGradient218);fill-opacity:1;fill-rule:nonzero"
         d="m 550.25728,64.222507 c -6.004,0.198 -16.86964,0.04917 -22.43164,0.826172 l -0.002,0.0059 c -120.532,9.473 -232.28335,66.712241 -310.40235,158.990241 -76.862,91.796 -114.055,210.39453 -103.375,329.64453 8.333,93.75 45.64858,182.5754 106.76758,254.1504 14.73,17.246 32.19369,34.17481 48.30469,50.25781 l 66.30078,66.07813 c 16.053,15.987 46.80556,45.15108 60.72656,61.45508 29.041,-30.625 58.72216,-60.6291 89.03516,-89.9961 11.254,-11.113 27.72628,-29.35019 38.86328,-38.99219 l 175.89258,175.75772 c 26.716,26.117 53.18535,52.4865 79.40235,79.1035 14.221,14.229 33.39237,32.4179 46.23437,47.1719 26.808,-29.075 55.1541,-55.6426 82.7461,-83.7676 71.721,-73.117 146.87036,-144.76659 217.94536,-218.34559 22.409,22.375 45.3458,44.29501 67.5917,66.79101 -13.845,10.654 -33.5283,31.38917 -46.6074,44.45117 -24.604,24.296 -49.0536,48.74541 -73.3496,73.35341 l -120.98436,120.834 c -19.963,20.058 -42.23153,41.625 -61.26953,62.375 27.117,26.75 53.96211,53.7686 80.53711,81.0606 L 1354.6616,922.26158 c -46.513,-45.8 -92.7294,-91.8912 -138.6504,-138.2832 -2.817,-2.791 -5.7815,-5.85859 -8.6445,-8.55859 79.059,-75.3 141.0839,-132.75302 143.8379,-250.16602 1.991,-71.275 -24.3878,-140.42177 -73.3418,-192.25977 -49.929,-52.499 -118.9876,-82.54511 -191.4336,-83.28711 -77.958,-1.369 -144.16263,27.30122 -199.18363,81.57422 -19.05,18.792 -42.91964,45.21119 -62.55664,61.86719 -22.025,-22.992 -60.78419,-63.93047 -84.49219,-83.23047 -47.117,-38.446 -105.86779,-59.80199 -166.67579,-60.58399 -71.171,-1.135 -139.94928,25.64642 -191.61328,74.60742 -113.565,109.507 -108.93963,288.92871 4.23437,394.59571 19.049,17.783 37.13741,38.15421 56.19141,56.28321 -10.93,14.321 -33.16367,33.5999 -46.26367,47.7539 -15.517,-14.159 -31.10844,-30.75126 -46.14844,-45.69726 -16.29,-16.192 -34.15925,-33.7841 -48.53125,-51.4961 -44.86,-55.575 -70.63944,-124.1127 -73.52344,-195.4707 -4.661,-89.133 26.53863,-176.4213 86.64063,-242.4043 59.84,-65.942 143.70655,-105.01883 232.68555,-108.42383 109.175,-4.768 180.74483,31.22751 260.79883,104.10351 5.433,4.945 11.96748,11.08644 16.89648,16.52344 l 79.93751,-80.33594 c -16.938,-16.553 -28.72197,-28.85011 -46.91797,-44.66211 -87.45,-76.003004 -191.8044,-114.320283 -307.6504,-110.488283 z m 16.63867,299.638683 c 61.8,-0.155 92.96672,25.39312 133.76172,66.57812 14.425,14.621 28.9333,29.15752 43.5293,43.60352 -18.808,20.342 -40.2675,40.48309 -60.0625,60.24609 -35.442,35.917 -71.15009,71.56132 -107.12109,106.94532 27.183,26.717 54.10018,53.70498 80.74218,80.95898 L 887.25924,493.61705 c 27.921,-27.804 55.31142,-56.05307 83.48242,-83.66407 31.35804,-30.738 71.39234,-47.19706 115.65434,-45.91406 41.583,1.071 80.992,18.80008 109.375,49.20508 29.262,31.082 42.6626,70.6003 40.8886,112.4043 -2.392,56.254 -27.987,88.93162 -67.125,125.76562 -14.079,13.254 -28.4722,29.38407 -43.1972,43.16407 -5.95,-7.058 -17.7915,-18.36271 -24.7285,-25.34571 -17.3,-17.371 -34.6955,-34.64326 -52.1875,-51.82226 -28.15,-28.15 -67.30532,-65.16102 -93.32232,-94.41602 -23.396,24.5 -60.35634,56.70819 -81.15234,81.49219 15.629,17.15 34.86583,35.11564 51.54883,51.55664 l 61.5,61.55469 c 15.20003,15.033 43.83003,46.23291 58.83003,57.75391 -22.775,20.725 -46.4934,45.562 -68.35542,67.5 l -89.54102,89.32812 c -18.275,18.417 -45.66319,47.66788 -64.74219,63.79688 -7.321,-9.454 -24.7075,-26.21297 -33.5625,-35.04297 l -56.5625,-56.51563 -202.0957,-202.32617 -49.93751,-49.75 c -15.087,-15.129 -30.59746,-29.52363 -42.48046,-47.39063 -14.817,-21.921 -23.43436,-47.43947 -24.94336,-73.85547 -5.775,-89.321 56.79922,-161.50956 146.32422,-167.10156 1.987,-0.083 3.97879,-0.12681 5.96679,-0.13281 z" /></g></g></svg>
